<svg xmlns="http://www.w3.org/2000/svg" viewBox="0 0 64 64">
  <defs>
    <linearGradient id="g" x1="0" x2="1" y1="0" y2="1">
      <stop stop-color="#74308f"/>
      <stop offset="1" stop-color="#2a103e"/>
    </linearGradient>
  </defs>
  <rect width="64" height="64" rx="14" fill="url(#g)"/>
  <rect x="11" y="7" width="42" height="50" rx="7" fill="none" stroke="#eadcf0" stroke-opacity=".7"/>
  <path d="M32 17c-5 6-10 10-10 15 0 4 3 7 7 7 1 0 2 0 3-1-1 4-3 6-5 8h10c-2-2-4-4-5-8 1 1 2 1 3 1 4 0 7-3 7-7 0-5-5-9-10-15Z" fill="#f2e6f5"/>
</svg>
